<svg width="276" height="187" viewBox="0 0 276 187" fill="none" xmlns="http://www.w3.org/2000/svg">
<path d="M84.4761 86.7213H48.9489V126.523H84.4761V86.7213Z" fill="#CCCCCC"/>
<path d="M30.8625 186.386H12.7759L10.8381 170.854H32.8003L30.8625 186.386Z" fill="#E6E6E6"/>
<path d="M67.181 175.136L66.5706 183.496C66.543 183.874 66.5965 184.254 66.7274 184.61C66.8584 184.966 67.0638 185.29 67.3299 185.56C67.596 185.83 67.9166 186.04 68.2703 186.175C68.624 186.311 69.0025 186.369 69.3805 186.346L73.6663 186.086C73.8649 186.074 74.0584 186.018 74.2331 185.923C74.4077 185.827 74.5592 185.694 74.6768 185.534C74.7945 185.373 74.8753 185.188 74.9136 184.993C74.952 184.797 74.9468 184.595 74.8986 184.402L72.5196 174.868L67.181 175.136Z" fill="#E6E6E6"/>
<path d="M103.03 180.079C108.074 181.261 111.677 182.942 114.044 185.216C114.887 186.02 115.99 186.493 117.152 186.551C118.637 186.629 119.851 186.462 120.763 186.054H120.763C120.997 185.951 121.199 185.787 121.348 185.579C121.497 185.371 121.588 185.128 121.611 184.873C121.638 184.614 121.597 184.352 121.489 184.115C121.382 183.878 121.213 183.674 121.001 183.524L109.038 174.996L103.957 177.033L102.771 178.221C102.643 178.349 102.546 178.506 102.488 178.678C102.431 178.851 102.414 179.034 102.439 179.214C102.464 179.394 102.53 179.566 102.633 179.716C102.735 179.866 102.871 179.991 103.03 180.079H103.03Z" fill="#E6E6E6"/>
<path d="M87.5068 43.5854L53.3124 43.2682C53.3984 38.2783 54.5572 33.3783 57.0901 28.9935C58.7537 26.1138 58.7178 22.9798 58.3169 20.3394C57.6982 16.2648 59.1368 12.0959 62.3337 9.5021C64.7768 7.51646 67.8602 6.49432 71.0032 6.62821L71.6672 6.65593C73.83 6.74598 75.9355 7.37896 77.7905 8.49674C79.6454 9.61452 81.1904 11.1813 82.2835 13.0532C83.3946 15.0515 83.8426 17.352 83.5629 19.6222C83.3462 21.7583 83.8648 23.9162 85.0779 26.0946C87.1707 30.878 87.6239 36.9991 87.5068 43.5854Z" fill="#2F2E41"/>
<path d="M110.385 175.441L103.674 177.195L70.9938 105.865L73.0363 175.441H66.3253C59.1541 142.708 46.207 104.929 52.0279 93.0023L86.7501 90.9559L110.385 175.441Z" fill="#6C63FF"/>
<path d="M70.702 31.6116C75.6976 31.6116 79.7473 27.5542 79.7473 22.5492C79.7473 17.5441 75.6976 13.4867 70.702 13.4867C65.7065 13.4867 61.6568 17.5441 61.6568 22.5492C61.6568 27.5542 65.7065 31.6116 70.702 31.6116Z" fill="#FFB9B9"/>
<path d="M78.5802 39.2123L63.6992 38.3353C65.1576 34.9818 65.7402 31.7524 65.1582 28.6882H76.2459C76.2208 31.0409 77.3894 35.1106 78.5802 39.2123Z" fill="#FFB9B9"/>
<path d="M87.9172 93.5869L55.2377 95.9258L58.5931 37.8969L64.2829 36.289L70.702 37.7506L77.1211 34.5348L81.2061 35.9968L87.9172 93.5869Z" fill="#6C63FF"/>
<path d="M60.7814 135.391L38.46 130.275C45.0973 108.223 57.0548 57.7751 53.1951 39.797L64.8664 34.535L60.7814 135.391Z" fill="#E6E6E6"/>
<path d="M49.9854 71.6617L41.5237 66.3996L48.7401 45.2243C49.5449 43.0393 51.0865 41.2047 53.0984 40.0377L55.5293 38.6277L54.0704 59.9682L49.9854 71.6617Z" fill="#E6E6E6"/>
<path d="M107.321 130.568C100.276 134.651 82.6653 136.928 74.9329 134.076C74.3639 114.151 73.2481 57.7935 76.8295 33.9503L89.668 39.2124L88.5008 54.9986C82.363 68.5028 100.186 115.538 107.321 130.568Z" fill="#E6E6E6"/>
<path d="M106.3 69.0308L98.4213 66.3997L87.9172 54.4138L89.668 39.2123L107.175 63.7686L106.3 69.0308Z" fill="#E6E6E6"/>
<path d="M81.6096 80.4094C81.7385 80.9762 82.0864 81.4686 82.5772 81.7787C83.0679 82.0888 83.6613 82.1912 84.2274 82.0636L90.9149 80.5463L89.9484 76.2696L83.2607 77.7867C82.6946 77.9152 82.2027 78.2637 81.8931 78.7555C81.5834 79.2473 81.4815 79.8422 81.6096 80.4094Z" fill="#FFB9B9"/>
<path d="M78.5802 20.2105C73.5561 18.1406 68.5941 17.9909 63.6993 19.9181L61.6568 12.6097H80.3309L78.5802 20.2105Z" fill="#2F2E41"/>
<path d="M87.6255 75.4621L91.4186 82.4781C97.7987 80.6953 103.328 75.0749 108.634 68.446L107.175 63.7686L98.1296 66.1073L87.6255 75.4621Z" fill="#E6E6E6"/>
<path d="M84.8535 60.9914H83.6864C83.6864 44.4527 80.2876 32.9271 76.9754 32.9271L76.6836 31.7578C79.654 31.7578 81.5477 36.5546 82.6133 40.5788C84.0579 46.0343 84.8535 53.2836 84.8535 60.9914Z" fill="#3F3D56"/>
<path d="M58.0095 56.8987H56.8423C56.8423 41.7519 60.2646 32.3424 65.304 32.3424L65.0122 33.5118C61.5265 33.5118 58.0095 40.7433 58.0095 56.8987Z" fill="#3F3D56"/>
<path d="M84.27 64.2071C85.8814 64.2071 87.1878 62.8983 87.1878 61.2838C87.1878 59.6692 85.8814 58.3604 84.27 58.3604C82.6585 58.3604 81.3521 59.6692 81.3521 61.2838C81.3521 62.8983 82.6585 64.2071 84.27 64.2071Z" fill="#3F3D56"/>
<path d="M53.341 63.9148H52.1738C52.1738 59.7237 54.5299 56.3141 57.4259 56.3141V57.4834C55.1734 57.4834 53.341 60.3685 53.341 63.9148Z" fill="#3F3D56"/>
<path d="M62.678 63.9148H61.5109C61.5109 60.3685 59.6784 57.4834 57.4259 57.4834V56.314C60.3219 56.314 62.678 59.7237 62.678 63.9148Z" fill="#3F3D56"/>
<path d="M62.0944 65.3765C62.739 65.3765 63.2616 64.8529 63.2616 64.2071C63.2616 63.5613 62.739 63.0378 62.0944 63.0378C61.4499 63.0378 60.9273 63.5613 60.9273 64.2071C60.9273 64.8529 61.4499 65.3765 62.0944 65.3765Z" fill="#3F3D56"/>
<path d="M52.7574 65.3765C53.402 65.3765 53.9245 64.8529 53.9245 64.2071C53.9245 63.5613 53.402 63.0378 52.7574 63.0378C52.1128 63.0378 51.5902 63.5613 51.5902 64.2071C51.5902 64.8529 52.1128 65.3765 52.7574 65.3765Z" fill="#3F3D56"/>
<path d="M38.1682 53.4543L45.4503 54.757L62.0944 78.4682L53.252 76.3837L38.1682 53.4543Z" fill="#6C63FF"/>
<path d="M36.8766 53.164C36.7656 53.1657 36.6571 53.1972 36.5625 53.2552C36.4678 53.3133 36.3905 53.3958 36.3385 53.494C36.2866 53.5923 36.262 53.7027 36.2672 53.8138C36.2724 53.9249 36.3074 54.0325 36.3684 54.1254L51.9265 77.7757C52.0133 77.9079 52.1474 78.0017 52.3012 78.0379L59.5399 79.7442C59.6619 79.773 59.7898 79.7639 59.9066 79.7182C60.0234 79.6725 60.1235 79.5923 60.1938 79.4882C60.264 79.3841 60.301 79.2611 60.2998 79.1355C60.2987 79.0099 60.2594 78.8876 60.1873 78.7849L43.1054 54.4505C43.0591 54.3842 43.0002 54.3277 42.9321 54.2843C42.8639 54.2408 42.7879 54.2112 42.7084 54.1972L36.9932 53.1746C36.9547 53.1676 36.9157 53.1641 36.8766 53.164Z" fill="#3F3D56"/>
<path d="M46.5818 70.0737L47.0142 74.4373L53.8375 73.7587C54.415 73.7013 54.9462 73.4164 55.314 72.9666C55.6819 72.5168 55.8564 71.939 55.799 71.3604C55.7417 70.7817 55.4573 70.2496 55.0084 69.881C54.5595 69.5125 53.9828 69.3377 53.4052 69.3951L46.5818 70.0737Z" fill="#FFB9B9"/>
<path d="M40.6485 69.5682C40.6584 71.0562 41.2549 72.4798 42.3079 73.5291C43.3609 74.5783 44.7852 75.168 46.2703 75.1697H47.3923L48.2091 68.3499L41.4461 65.9106L40.6485 69.5682Z" fill="#E6E6E6"/>
<path d="M276 0H142.935V70.2184H276V0Z" fill="#E6E6E6"/>
<path d="M146.81 66.3353H272.124V3.88306H146.81V66.3353Z" fill="white"/>
<path d="M201.07 12.9435H156.499V57.5985H201.07V12.9435Z" fill="#3F3D56"/>
<path d="M190.412 33.3294C191.125 33.3294 191.704 32.7499 191.704 32.0351C191.704 31.3203 191.125 30.7408 190.412 30.7408C189.698 30.7408 189.12 31.3203 189.12 32.0351C189.12 32.7499 189.698 33.3294 190.412 33.3294Z" fill="#6C63FF"/>
<path d="M185.567 28.7992C186.281 28.7992 186.859 28.2197 186.859 27.5049C186.859 26.79 186.281 26.2105 185.567 26.2105C184.854 26.2105 184.275 26.79 184.275 27.5049C184.275 28.2197 184.854 28.7992 185.567 28.7992Z" fill="#6C63FF"/>
<path d="M184.921 32.0351C184.446 32.0352 183.98 32.1675 183.575 32.4173C183.219 31.8801 182.8 31.3874 182.327 30.9495C182.332 30.8805 182.337 30.8113 182.337 30.7408C182.338 30.2329 182.189 29.7361 181.909 29.3124C181.63 28.8887 181.232 28.5568 180.765 28.3581C180.299 28.1595 179.784 28.1028 179.286 28.1953C178.787 28.2877 178.327 28.5251 177.962 28.8779C177.27 28.7795 176.568 28.7734 175.875 28.8597C175.875 28.8394 175.878 28.8196 175.878 28.7992C175.878 28.3659 175.77 27.9394 175.564 27.5588C175.357 27.1782 175.058 26.8557 174.695 26.6208C174.331 26.3859 173.915 26.2461 173.484 26.2143C173.052 26.1825 172.62 26.2597 172.226 26.4387C171.832 26.6178 171.49 26.8931 171.23 27.2393C170.97 27.5855 170.8 27.9915 170.738 28.4203C170.675 28.849 170.721 29.2866 170.87 29.6931C171.02 30.0995 171.27 30.4618 171.595 30.7466C171.163 31.1179 170.771 31.5337 170.425 31.9871C170.106 31.7212 169.728 31.5362 169.322 31.4477C168.917 31.3592 168.496 31.3698 168.096 31.4786C167.695 31.5874 167.327 31.7913 167.022 32.0729C166.717 32.3545 166.484 32.7057 166.343 33.0966C166.202 33.4875 166.157 33.9067 166.211 34.3188C166.266 34.7308 166.419 35.1236 166.658 35.4638C166.896 35.8041 167.212 36.0818 167.581 36.2736C167.949 36.4653 168.358 36.5654 168.772 36.5653L168.781 36.5649C168.776 36.6725 168.772 36.7803 168.772 36.8889C168.773 37.5403 168.851 38.1892 169.006 38.8217C168.238 39.1112 167.556 39.5914 167.024 40.2173C166.493 40.8432 166.128 41.5942 165.965 42.3999C165.803 43.2055 165.847 44.0394 166.094 44.8233C166.341 45.6072 166.782 46.3154 167.377 46.8813C167.972 47.4473 168.701 47.8525 169.495 48.059C170.29 48.2654 171.123 48.2663 171.918 48.0616C172.712 47.8569 173.442 47.4533 174.038 46.8886C174.634 46.3239 175.078 45.6167 175.326 44.8334C177.124 45.1795 178.985 44.9028 180.605 44.0489C180.77 44.439 181.028 44.7824 181.357 45.0491C181.686 45.3157 182.075 45.4975 182.49 45.5783C182.905 45.6591 183.334 45.6365 183.739 45.5126C184.143 45.3887 184.511 45.1672 184.81 44.8675C185.109 44.5678 185.33 44.1992 185.454 43.7939C185.578 43.3886 185.6 42.9591 185.52 42.5431C185.439 42.127 185.258 41.7372 184.991 41.4078C184.725 41.0784 184.383 40.8195 183.993 40.6538C184.553 39.5899 184.867 38.4138 184.913 37.2121L184.921 37.2125C185.606 37.2125 186.264 36.9398 186.748 36.4543C187.233 35.9688 187.505 35.3104 187.505 34.6238C187.505 33.9373 187.233 33.2788 186.748 32.7933C186.264 32.3079 185.606 32.0351 184.921 32.0351V32.0351Z" fill="#6C63FF"/>
<path d="M184.275 11.9727H171.356V13.9142H184.275V11.9727Z" fill="#E6E6E6"/>
<path d="M257.913 12.9435H213.343V57.5985H257.913V12.9435Z" fill="#3F3D56"/>
<path d="M244.09 43.2312C244.411 43.2312 244.671 42.9705 244.671 42.6488C244.671 42.3271 244.411 42.0663 244.09 42.0663C243.769 42.0663 243.509 42.3271 243.509 42.6488C243.509 42.9705 243.769 43.2312 244.09 43.2312Z" fill="#6C63FF"/>
<path d="M241.91 41.1926C242.231 41.1926 242.491 40.9318 242.491 40.6102C242.491 40.2885 242.231 40.0277 241.91 40.0277C241.589 40.0277 241.329 40.2885 241.329 40.6102C241.329 40.9318 241.589 41.1926 241.91 41.1926Z" fill="#6C63FF"/>
<path d="M241.619 42.6487C241.405 42.6488 241.196 42.7083 241.014 42.8207C240.853 42.579 240.665 42.3573 240.452 42.1602C240.454 42.1292 240.457 42.098 240.457 42.0663C240.457 41.8377 240.39 41.6142 240.264 41.4235C240.138 41.2328 239.959 41.0835 239.749 40.9941C239.539 40.9047 239.308 40.8792 239.083 40.9208C238.859 40.9624 238.652 41.0692 238.488 41.228C238.176 41.1837 237.861 41.181 237.549 41.2198C237.549 41.2107 237.55 41.2018 237.55 41.1926C237.55 40.9976 237.502 40.8057 237.409 40.6344C237.316 40.4631 237.181 40.318 237.018 40.2123C236.854 40.1066 236.667 40.0437 236.473 40.0294C236.278 40.0151 236.084 40.0498 235.907 40.1304C235.729 40.211 235.575 40.3348 235.458 40.4906C235.341 40.6464 235.265 40.8292 235.237 41.0221C235.209 41.215 235.229 41.4119 235.297 41.5948C235.364 41.7777 235.476 41.9408 235.623 42.0689C235.428 42.236 235.252 42.4231 235.096 42.6272C234.953 42.5075 234.782 42.4242 234.6 42.3844C234.417 42.3446 234.228 42.3494 234.048 42.3983C233.868 42.4473 233.702 42.539 233.565 42.6658C233.427 42.7925 233.323 42.9505 233.259 43.1264C233.196 43.3023 233.175 43.491 233.2 43.6764C233.225 43.8618 233.293 44.0386 233.401 44.1917C233.508 44.3448 233.65 44.4698 233.816 44.556C233.982 44.6423 234.166 44.6874 234.352 44.6873L234.356 44.6872C234.354 44.7356 234.352 44.7841 234.352 44.833C234.352 45.1261 234.388 45.4181 234.458 45.7027C234.112 45.833 233.805 46.0491 233.566 46.3307C233.326 46.6124 233.162 46.9503 233.089 47.3129C233.016 47.6754 233.036 48.0507 233.147 48.4034C233.258 48.7562 233.457 49.0749 233.725 49.3295C233.992 49.5842 234.32 49.7666 234.678 49.8595C235.035 49.9524 235.41 49.9528 235.768 49.8607C236.125 49.7685 236.454 49.5869 236.722 49.3328C236.99 49.0787 237.19 48.7605 237.302 48.408C238.111 48.5637 238.948 48.4392 239.677 48.0549C239.751 48.2305 239.868 48.385 240.016 48.505C240.164 48.625 240.339 48.7068 240.525 48.7432C240.712 48.7795 240.905 48.7694 241.087 48.7136C241.269 48.6578 241.435 48.5582 241.569 48.4233C241.704 48.2885 241.804 48.1226 241.859 47.9402C241.915 47.7578 241.925 47.5645 241.889 47.3773C241.852 47.1901 241.771 47.0147 241.651 46.8665C241.531 46.7182 241.377 46.6017 241.202 46.5272C241.454 46.0484 241.595 45.5192 241.616 44.9784L241.619 44.9786C241.928 44.9786 242.223 44.8559 242.442 44.6374C242.66 44.4189 242.782 44.1226 242.782 43.8137C242.782 43.5047 242.66 43.2084 242.442 42.9899C242.223 42.7715 241.928 42.6488 241.619 42.6488V42.6487Z" fill="#6C63FF"/>
<path d="M248.651 32.178C248.972 32.178 249.232 31.9173 249.232 31.5956C249.232 31.2739 248.972 31.0131 248.651 31.0131C248.33 31.0131 248.07 31.2739 248.07 31.5956C248.07 31.9173 248.33 32.178 248.651 32.178Z" fill="#6C63FF"/>
<path d="M250.019 29.523C250.34 29.523 250.6 29.2622 250.6 28.9405C250.6 28.6189 250.34 28.3581 250.019 28.3581C249.698 28.3581 249.437 28.6189 249.437 28.9405C249.437 29.2622 249.698 29.523 250.019 29.523Z" fill="#6C63FF"/>
<path d="M247.981 29.2128C247.923 29.0065 247.809 28.8205 247.652 28.6753C247.841 28.455 248.003 28.2131 248.134 27.9545C248.165 27.9485 248.195 27.9422 248.226 27.9336C248.445 27.8718 248.642 27.7466 248.791 27.5736C248.94 27.4006 249.035 27.1875 249.064 26.9608C249.093 26.734 249.055 26.5038 248.954 26.2987C248.853 26.0937 248.694 25.9229 248.497 25.8077C248.456 25.4954 248.373 25.1901 248.251 24.8996C248.26 24.8974 248.268 24.8961 248.277 24.8936C248.465 24.841 248.636 24.742 248.775 24.6059C248.915 24.4698 249.018 24.3008 249.075 24.1144C249.132 23.9281 249.142 23.7303 249.103 23.5392C249.064 23.3482 248.978 23.17 248.852 23.0209C248.727 22.8718 248.566 22.7567 248.385 22.6861C248.203 22.6155 248.007 22.5916 247.814 22.6166C247.621 22.6417 247.437 22.7149 247.28 22.8295C247.123 22.9441 246.996 23.0965 246.913 23.2727C246.7 23.1302 246.472 23.0107 246.234 22.916C246.31 22.7451 246.344 22.5585 246.333 22.3717C246.321 22.185 246.265 22.0037 246.17 21.8432C246.074 21.6827 245.941 21.5477 245.782 21.4496C245.623 21.3516 245.442 21.2933 245.256 21.2797C245.07 21.2662 244.883 21.2978 244.712 21.3718C244.54 21.4459 244.389 21.5602 244.271 21.7051C244.153 21.8501 244.072 22.0214 244.034 22.2045C243.996 22.3877 244.002 22.5773 244.053 22.7573L244.054 22.7608C244.007 22.7721 243.96 22.7836 243.913 22.7968C243.631 22.8763 243.36 22.9895 243.106 23.134C242.887 22.8361 242.596 22.5987 242.261 22.4442C241.925 22.2898 241.556 22.2232 241.188 22.2508C240.82 22.2784 240.465 22.3993 240.156 22.6021C239.847 22.805 239.595 23.083 239.423 23.4103C239.251 23.7376 239.164 24.1033 239.172 24.4731C239.18 24.8429 239.281 25.2048 239.466 25.5246C239.652 25.8445 239.915 26.1119 240.232 26.3018C240.549 26.4916 240.909 26.5977 241.278 26.6101C241.347 27.4323 241.694 28.2063 242.261 28.805C242.112 28.9244 241.995 29.0784 241.92 29.2536C241.845 29.4288 241.814 29.6198 241.83 29.8099C241.845 30 241.907 30.1832 242.01 30.3437C242.113 30.5041 242.254 30.6368 242.42 30.73C242.586 30.8233 242.772 30.8742 242.963 30.8785C243.153 30.8827 243.341 30.8401 243.511 30.7544C243.681 30.6686 243.828 30.5423 243.938 30.3866C244.048 30.231 244.118 30.0506 244.142 29.8615C244.67 29.9745 245.217 29.9674 245.742 29.8408L245.743 29.8444C245.784 29.9917 245.854 30.1295 245.949 30.2498C246.043 30.37 246.16 30.4705 246.294 30.5454C246.427 30.6203 246.573 30.6681 246.725 30.6862C246.877 30.7043 247.031 30.6922 247.178 30.6507C247.325 30.6092 247.462 30.5391 247.582 30.4444C247.702 30.3497 247.802 30.2322 247.877 30.0986C247.952 29.9651 247.999 29.8181 248.017 29.6661C248.035 29.5141 248.023 29.3601 247.981 29.2128V29.2128Z" fill="#6C63FF"/>
<path d="M226.134 24.263C226.455 24.263 226.716 24.0023 226.716 23.6806C226.716 23.3589 226.455 23.0981 226.134 23.0981C225.813 23.0981 225.553 23.3589 225.553 23.6806C225.553 24.0023 225.813 24.263 226.134 24.263Z" fill="#6C63FF"/>
<path d="M223.162 24.5016C223.483 24.5016 223.743 24.2409 223.743 23.9192C223.743 23.5975 223.483 23.3367 223.162 23.3367C222.841 23.3367 222.58 23.5975 222.58 23.9192C222.58 24.2409 222.841 24.5016 223.162 24.5016Z" fill="#6C63FF"/>
<path d="M224.469 25.5087C224.324 25.667 224.227 25.8623 224.187 26.0729C223.901 26.0286 223.61 26.0186 223.321 26.0432C223.3 26.0204 223.279 25.9977 223.255 25.9763C223.087 25.8221 222.877 25.721 222.652 25.6855C222.426 25.65 222.195 25.6818 221.988 25.7769C221.781 25.872 221.606 26.0261 221.485 26.2202C221.364 26.4142 221.304 26.6395 221.31 26.868C221.067 27.0685 220.852 27.3003 220.671 27.5574C220.664 27.5511 220.658 27.5442 220.651 27.5381C220.508 27.4064 220.334 27.313 220.145 27.2663C219.956 27.2197 219.758 27.2213 219.57 27.271C219.382 27.3207 219.209 27.417 219.068 27.5509C218.926 27.6849 218.821 27.8523 218.76 28.0378C218.7 28.2232 218.688 28.4208 218.724 28.6124C218.76 28.8041 218.843 28.9836 218.966 29.1346C219.089 29.2856 219.248 29.4031 219.429 29.4766C219.609 29.55 219.805 29.5769 219.998 29.5548C219.99 29.8115 220.009 30.0683 220.054 30.3209C219.869 30.3465 219.693 30.4162 219.541 30.5244C219.389 30.6325 219.264 30.7758 219.179 30.9421C219.094 31.1085 219.05 31.293 219.05 31.48C219.051 31.6671 219.097 31.8512 219.184 32.0168C219.271 32.1824 219.396 32.3246 219.549 32.4313C219.703 32.5381 219.879 32.6063 220.065 32.6302C220.25 32.654 220.438 32.6329 220.613 32.5685C220.789 32.5041 220.946 32.3983 221.072 32.2602L221.074 32.2573C221.108 32.2914 221.143 32.3254 221.179 32.3584C221.395 32.5559 221.634 32.7267 221.891 32.8669C221.754 33.2105 221.706 33.5832 221.753 33.9502C221.799 34.3172 221.937 34.6664 222.155 34.9651C222.373 35.2637 222.663 35.502 222.998 35.6576C223.333 35.8132 223.702 35.881 224.07 35.8546C224.439 35.8282 224.794 35.7085 225.104 35.5067C225.413 35.3049 225.666 35.0276 225.839 34.7009C226.012 34.3742 226.1 34.0088 226.094 33.639C226.087 33.2691 225.987 32.907 225.803 32.5865C226.463 32.0931 226.936 31.3894 227.144 30.591C227.323 30.6543 227.516 30.6725 227.704 30.6439C227.892 30.6153 228.071 30.5409 228.223 30.4272C228.376 30.3134 228.499 30.1639 228.58 29.9916C228.662 29.8193 228.7 29.6296 228.691 29.439C228.683 29.2485 228.628 29.0631 228.531 28.8989C228.434 28.7348 228.298 28.597 228.136 28.4976C227.973 28.3982 227.789 28.3403 227.599 28.329C227.409 28.3177 227.219 28.3533 227.046 28.4326C226.863 27.9235 226.568 27.4621 226.183 27.0822L226.186 27.0796C226.289 26.9666 226.369 26.8344 226.421 26.6905C226.473 26.5466 226.497 26.3938 226.49 26.2408C226.483 26.0878 226.446 25.9377 226.381 25.7991C226.317 25.6604 226.225 25.5359 226.112 25.4326C225.999 25.3294 225.867 25.2495 225.724 25.1974C225.58 25.1453 225.427 25.1222 225.275 25.1293C225.122 25.1363 224.972 25.1735 224.834 25.2386C224.696 25.3037 224.571 25.3955 224.469 25.5087Z" fill="#6C63FF"/>
<path d="M241.119 11.9727H228.2V13.9142H241.119V11.9727Z" fill="#E6E6E6"/>
<path d="M8.13133 165.108C12.7885 171.357 22.4559 172.014 22.4559 172.014C22.4559 172.014 24.5725 162.541 19.9153 156.292C15.2582 150.043 5.59078 149.386 5.59078 149.386C5.59078 149.386 3.47416 158.859 8.13133 165.108Z" fill="#E6E6E6"/>
<path d="M31.856 167.457C28.7829 171.58 22.4036 172.014 22.4036 172.014C22.4036 172.014 21.0069 165.763 24.0801 161.64C27.1532 157.516 33.5324 157.082 33.5324 157.082C33.5324 157.082 34.9291 163.334 31.856 167.457Z" fill="#E6E6E6"/>
<path d="M167.804 186.275H0V187H167.804V186.275Z" fill="#3F3D56"/>
</svg>
