<svg width="292" height="203" viewBox="0 0 292 203" fill="none" xmlns="http://www.w3.org/2000/svg">
<path d="M243.977 31.2143L221.451 31.4335C220.392 26.2275 216.835 12.568 220.039 8.84219C220.185 7.4399 220.867 6.14789 221.943 5.23512C223.018 4.32235 224.405 3.85915 225.814 3.94194V3.94194C229.306 -1.51639 235.121 -0.69686 239.051 2.7121C243.007 4.07531 244.498 6.49711 243.977 9.78362C246.906 12.3447 247.447 15.4605 246.132 19.0073L243.977 31.2143Z" fill="#2F2E41"/>
<path d="M241.808 45.0735L225.557 42.8261L222.306 38.0815C226.784 35.1152 228.368 30.9721 226.307 25.346L237.558 25.0963C237.031 30.1064 238.69 33.9856 243.308 36.3335L241.808 45.0735Z" fill="#FFB9B9"/>
<path d="M221.714 191.477L221.093 199.962C221.065 200.346 221.119 200.731 221.253 201.093C221.386 201.454 221.595 201.783 221.866 202.057C222.137 202.331 222.463 202.544 222.824 202.681C223.184 202.819 223.569 202.878 223.954 202.855L228.317 202.591C228.52 202.579 228.717 202.522 228.894 202.425C229.072 202.328 229.226 202.193 229.346 202.03C229.466 201.867 229.548 201.68 229.587 201.481C229.626 201.282 229.621 201.078 229.572 200.882L227.15 191.205L221.714 191.477Z" fill="#E6E6E6"/>
<path d="M235.841 191.205L233.419 200.882C233.37 201.078 233.365 201.282 233.404 201.481C233.443 201.68 233.525 201.867 233.645 202.03C233.765 202.193 233.919 202.328 234.097 202.425C234.274 202.522 234.471 202.579 234.674 202.591L239.037 202.855C239.422 202.878 239.807 202.819 240.168 202.681C240.528 202.544 240.854 202.331 241.125 202.057C241.396 201.783 241.605 201.454 241.738 201.093C241.872 200.731 241.926 200.346 241.898 199.962L241.277 191.477L235.841 191.205Z" fill="#E6E6E6"/>
<path d="M241.558 192.655L235.67 192.065L229.807 129.477L227.592 191.863L221.806 191.656L212.055 105.255H249.309L241.558 192.655Z" fill="#6C63FF"/>
<path d="M232.557 29.3415C238.771 29.3415 243.808 24.3104 243.808 18.1043C243.808 11.8982 238.771 6.86716 232.557 6.86716C226.344 6.86716 221.306 11.8982 221.306 18.1043C221.306 24.3104 226.344 29.3415 232.557 29.3415Z" fill="#FFB9B9"/>
<path d="M254.809 107.252L209.305 107.752C216.058 82.0754 220.098 58.2242 213.056 41.8272L224.307 36.3335C229.732 41.9849 235.773 41.4023 242.308 35.834L253.059 38.5809C251.218 60.0831 252.043 83.1121 254.809 107.252Z" fill="#6C63FF"/>
<path d="M196.804 80.7826L225.057 92.0198L231.373 93.8753C231.656 93.9583 231.952 93.9834 232.245 93.9491C232.537 93.9148 232.82 93.8218 233.075 93.6756C233.331 93.5295 233.554 93.3333 233.732 93.0988C233.91 92.8643 234.038 92.5963 234.11 92.3109C234.235 91.8105 234.179 91.2821 233.951 90.8192C233.723 90.3563 233.339 89.9889 232.866 89.7822L226.307 87.7746L206.555 76.2878L210.68 65.4252L202.055 60.8055L196.804 80.7826Z" fill="#FFB9B9"/>
<path d="M197.054 60.306C202.429 62.4005 206.705 65.9751 210.055 70.794L220.556 55.5615L213.056 41.8272L197.054 60.306Z" fill="#6C63FF"/>
<path d="M245.238 16.2831C240.671 15.108 236.182 14.9466 231.817 16.4372C229.037 17.782 225.699 17.6581 221.986 16.55V5.33871L242.031 5.87259L245.238 16.2831Z" fill="#2F2E41"/>
<path d="M224.963 67.6899C224.079 67.6909 223.232 68.0418 222.608 68.6658C221.983 69.2897 221.632 70.1357 221.631 71.018L222.946 98.5177C222.947 99.4001 223.298 100.246 223.923 100.87C224.548 101.494 225.395 101.845 226.278 101.846H241.316C242.2 101.845 243.047 101.494 243.672 100.87C244.296 100.246 244.648 99.4001 244.649 98.5177L245.964 71.018C245.963 70.1357 245.612 69.2897 244.987 68.6658C244.362 68.0418 243.515 67.6909 242.632 67.6899H224.963Z" fill="#3F3D56"/>
<path d="M267.631 78.7052L243.005 88.4988L241.147 89.2377C241.087 89.2607 241.028 89.2804 240.966 89.3001L234.741 91.1294C233.945 91.3626 232.844 90.2919 232.199 89.553C231.88 89.1969 231.699 88.7383 231.69 88.2605C231.68 87.7827 231.842 87.3173 232.147 86.9486C232.233 86.8496 232.327 86.7583 232.429 86.676C232.669 86.4895 232.952 86.3654 233.251 86.3147L239.47 85.093C239.693 85.0493 239.907 84.9694 240.104 84.8565L243.005 83.1685L258.062 74.4127C258.48 74.1696 258.799 73.786 258.961 73.3301C259.123 72.8742 259.118 72.3756 258.946 71.9233L256.072 64.3531C255.896 63.8899 255.895 63.3785 256.068 62.9144C256.242 62.4502 256.579 62.0651 257.016 61.8308L261.777 59.2823C262.049 59.1364 262.351 59.0541 262.66 59.0415C262.968 59.029 263.276 59.0866 263.559 59.2099C263.842 59.3332 264.093 59.5191 264.294 59.7535C264.494 59.9879 264.639 60.2647 264.717 60.5631L268.85 76.288C268.978 76.7702 268.924 77.2822 268.699 77.7274C268.474 78.1727 268.094 78.5204 267.631 78.7052V78.7052Z" fill="#FFB9B9"/>
<path d="M269.061 57.5592C263.685 59.6536 259.41 63.2282 256.06 68.0472L245.559 52.8146L253.059 38.5809L269.061 57.5592Z" fill="#6C63FF"/>
<path d="M240.045 28.1059C235.123 30.1507 229.962 30.0677 224.59 28.1059C226.153 25.4411 223.817 23.354 222.617 20.664L242.676 20.0686C241.142 22.4055 238.878 25.1666 240.045 28.1059Z" fill="white"/>
<path d="M242.463 20.5133L242.23 20.2811L242.559 19.9527L244.524 17.6629L244.774 17.8764L242.801 20.1753L242.463 20.5133Z" fill="white"/>
<path d="M221.243 19.1214L221.032 19.3738L223.005 21.0159L223.216 20.7635L221.243 19.1214Z" fill="white"/>
<path d="M243.03 22.4441L239.576 27.8625L239.854 28.0389L243.307 22.6205L243.03 22.4441Z" fill="white"/>
<path d="M221.605 22.4437L221.327 22.62L224.78 28.039L225.058 27.8626L221.605 22.4437Z" fill="white"/>
<path d="M243.662 82.7039V88.6538L241.588 89.4786C241.522 89.5043 241.456 89.5263 241.386 89.5483L234.438 91.5902C233.55 91.8505 232.32 90.6554 231.601 89.8305C231.245 89.433 231.043 88.9212 231.032 88.3878C231.021 87.8545 231.202 87.3349 231.542 86.9234C231.638 86.8128 231.744 86.711 231.858 86.6191C232.126 86.411 232.441 86.2724 232.775 86.2158L239.716 84.8521C239.965 84.8033 240.205 84.7141 240.425 84.5881L243.662 82.7039Z" fill="white"/>
<path d="M246.668 61.4813H245.479C245.479 44.6955 242.019 32.9976 238.647 32.9976L238.35 31.8108C241.374 31.8108 243.302 36.6794 244.387 40.7637C245.858 46.3007 246.668 53.6584 246.668 61.4813Z" fill="#3F3D56"/>
<path d="M219.337 57.3275H218.149C218.149 41.9543 221.633 32.4042 226.764 32.4042L226.467 33.5911C222.918 33.5911 219.337 40.9306 219.337 57.3275Z" fill="#3F3D56"/>
<path d="M246.073 64.7451C247.714 64.7451 249.044 63.4167 249.044 61.778C249.044 60.1394 247.714 58.811 246.073 58.811C244.433 58.811 243.103 60.1394 243.103 61.778C243.103 63.4167 244.433 64.7451 246.073 64.7451Z" fill="#3F3D56"/>
<path d="M214.584 64.4484H213.396C213.396 60.1947 215.794 56.7341 218.743 56.7341V57.9209C216.449 57.9209 214.584 60.8491 214.584 64.4484Z" fill="#3F3D56"/>
<path d="M224.09 64.4484H222.902C222.902 60.8491 221.036 57.9209 218.743 57.9209V56.7341C221.691 56.7341 224.09 60.1947 224.09 64.4484Z" fill="#3F3D56"/>
<path d="M223.496 65.9319C224.152 65.9319 224.684 65.4006 224.684 64.7451C224.684 64.0896 224.152 63.5583 223.496 63.5583C222.84 63.5583 222.308 64.0896 222.308 64.7451C222.308 65.4006 222.84 65.9319 223.496 65.9319Z" fill="#3F3D56"/>
<path d="M213.99 65.9319C214.646 65.9319 215.178 65.4006 215.178 64.7451C215.178 64.0896 214.646 63.5583 213.99 63.5583C213.333 63.5583 212.801 64.0896 212.801 64.7451C212.801 65.4006 213.333 65.9319 213.99 65.9319Z" fill="#3F3D56"/>
<path d="M70.7872 24.8608L49.9177 28.3905C49.4022 28.4784 48.8723 28.3721 48.4307 28.0922C47.9891 27.8124 47.6671 27.3789 47.5271 26.8756C46.0193 21.4404 42.8669 14.3499 45.9276 10.7906C46.0835 9.29316 46.8116 7.9135 47.9604 6.9388C49.1092 5.9641 50.5901 5.46947 52.0949 5.55787C55.8231 -0.270757 62.0328 0.604375 66.2299 4.24461C70.4538 5.70029 72.0463 8.2864 71.4894 11.7959C73.3142 13.3911 74.2709 15.188 74.4726 17.1603C74.5682 18.2578 74.4284 19.3631 74.0625 20.4023C73.6965 21.4416 73.1129 22.391 72.3504 23.1871L70.7872 24.8608Z" fill="#2F2E41"/>
<path d="M67.5425 41.2704L51.364 40.3199C52.9495 36.6853 53.5829 33.1853 52.9501 29.8644H65.0047C64.9774 32.4142 66.2479 36.8249 67.5425 41.2704Z" fill="#9F616A"/>
<path d="M48.0681 190.58L47.4045 199.64C47.3745 200.051 47.4326 200.462 47.5749 200.848C47.7173 201.234 47.9406 201.585 48.2299 201.878C48.5192 202.17 48.8678 202.398 49.2523 202.545C49.6368 202.692 50.0484 202.755 50.4593 202.73L55.1189 202.448C55.3348 202.435 55.5452 202.374 55.7351 202.271C55.9249 202.168 56.0897 202.024 56.2175 201.849C56.3454 201.675 56.4333 201.475 56.475 201.263C56.5167 201.051 56.5111 200.832 56.4586 200.623L53.8722 190.29L48.0681 190.58Z" fill="#E6E6E6"/>
<path d="M63.1531 190.29L60.5667 200.623C60.5142 200.832 60.5086 201.051 60.5503 201.263C60.592 201.475 60.6799 201.675 60.8078 201.849C60.9356 202.024 61.1004 202.168 61.2902 202.271C61.4801 202.374 61.6905 202.435 61.9064 202.448L66.5659 202.73C66.9769 202.755 67.3885 202.692 67.773 202.545C68.1575 202.398 68.5061 202.17 68.7954 201.878C69.0847 201.585 69.308 201.234 69.4504 200.848C69.5927 200.462 69.6508 200.051 69.6208 199.64L68.9572 190.58L63.1531 190.29Z" fill="#E6E6E6"/>
<path d="M69.2579 191.838L62.9701 191.208L56.7098 124.374L54.3439 190.992L48.1662 190.771L37.7538 98.5084H77.5345L69.2579 191.838Z" fill="#6C63FF"/>
<path d="M59.2954 33.7106C65.9308 33.7106 71.3098 28.3382 71.3098 21.7111C71.3098 15.0839 65.9308 9.71158 59.2954 9.71158C52.6601 9.71158 47.2811 15.0839 47.2811 21.7111C47.2811 28.3382 52.6601 33.7106 59.2954 33.7106Z" fill="#9F616A"/>
<path d="M72.8362 15.9788C67.9599 15.1306 63.1657 15.0141 58.5053 16.09C55.5366 17.0606 51.9714 16.9712 48.0066 16.1714V8.07947L69.4114 8.4648L72.8362 15.9788Z" fill="#2F2E41"/>
<path d="M67.2911 31.3391C62.0352 33.5227 56.524 33.434 50.7876 31.3391C52.4568 28.4935 49.9617 26.2648 48.6808 23.3923L70.1002 22.7565C68.4622 25.252 66.0452 28.2003 67.2911 31.3391Z" fill="white"/>
<path d="M47.206 21.7536L46.9954 22.006L49.1021 23.7594L49.3128 23.507L47.206 21.7536Z" fill="white"/>
<path d="M70.4883 25.2988L66.8005 31.085L67.0779 31.2614L70.7658 25.4752L70.4883 25.2988Z" fill="white"/>
<path d="M47.5901 25.2986L47.3126 25.475L50.9995 31.2616L51.277 31.0853L47.5901 25.2986Z" fill="white"/>
<path d="M36.4544 76.439L27.2548 70.736L35.1004 47.7862C35.9755 45.418 37.6515 43.4297 39.8388 42.165L42.4817 40.6367L42.7115 63.7888L36.4544 76.439Z" fill="#6C63FF"/>
<path d="M76.2189 87.5851L74.8579 75.9418C74.7852 69.796 75.832 63.8543 78.3282 58.3794L79.5971 41.2704L65.6392 35.5674C65.5963 35.8515 65.56 36.1354 65.5191 36.4194L58.9774 39.6862L52.5976 38.2381L52.6329 36.2011L39.9439 41.9041C44.1401 61.3887 41.8514 81.6227 34.6353 105.523L51.352 110.088L51.4909 102.071L66.3891 101.008C66.5425 103.609 66.6658 106.164 66.7374 108.662C75.144 111.753 75.4328 111.702 83.0922 107.276C80.0419 100.871 77.6268 94.2056 76.2189 87.5851Z" fill="#6C63FF"/>
<path d="M97.6789 73.5873L89.1139 70.736L75.4136 54.8065L79.597 41.2706L98.6306 67.8846L97.6789 73.5873Z" fill="#6C63FF"/>
<path d="M70.8361 85.9198C70.9762 86.534 71.3545 87.0677 71.888 87.4038C72.4216 87.7398 73.0667 87.8509 73.6821 87.7126L80.9528 86.0681L79.9019 81.433L72.6312 83.0772C72.0157 83.2165 71.4809 83.5942 71.1443 84.1272C70.8077 84.6603 70.6968 85.3051 70.8361 85.9197V85.9198Z" fill="#E6E6E6"/>
<path d="M77.3765 80.5578L81.5005 88.1618C88.4369 86.2296 94.4483 80.1382 100.217 72.9538L98.6307 67.8845L88.7967 70.4191L77.3765 80.5578Z" fill="#6C63FF"/>
<path d="M23.6066 56.7058L31.5235 58.1177L49.6193 83.8158L40.006 81.5565L23.6066 56.7058Z" fill="#E6E6E6"/>
<path d="M22.2024 56.3912C22.0818 56.393 21.9639 56.4272 21.861 56.4901C21.7581 56.553 21.674 56.6424 21.6175 56.7489C21.561 56.8554 21.5343 56.9751 21.54 57.0954C21.5457 57.2158 21.5837 57.3325 21.6499 57.4331L38.5647 83.0653C38.6591 83.2086 38.8049 83.3103 38.972 83.3495L46.842 85.1988C46.9747 85.23 47.1137 85.2202 47.2407 85.1706C47.3676 85.1211 47.4765 85.0341 47.5529 84.9213C47.6292 84.8086 47.6694 84.6752 47.6682 84.5391C47.6669 84.403 47.6242 84.2704 47.5458 84.159L28.9745 57.7855C28.9241 57.7137 28.8601 57.6525 28.786 57.6053C28.7119 57.5582 28.6293 57.5262 28.5428 57.511L22.3293 56.4027C22.2874 56.3952 22.245 56.3913 22.2024 56.3912Z" fill="#3F3D56"/>
<path d="M32.7539 74.7179L33.224 79.4472L40.6423 78.7117C41.2702 78.6495 41.8477 78.3407 42.2476 77.8532C42.6475 77.3657 42.8372 76.7396 42.7749 76.1124C42.7126 75.4853 42.4034 74.9085 41.9153 74.5091C41.4272 74.1096 40.8003 73.9202 40.1723 73.9825L32.7539 74.7179Z" fill="#E6E6E6"/>
<path d="M26.3033 74.1701C26.3141 75.7827 26.9625 77.3257 28.1074 78.4628C29.2523 79.6 30.8007 80.2391 32.4153 80.241H33.6351L34.5231 72.8497L27.1704 70.206L26.3033 74.1701Z" fill="#6C63FF"/>
<path d="M69.5141 23.5742L69.2816 23.342L69.6328 22.9912L71.7311 20.5455L71.9806 20.7589L69.8738 23.2139L69.5141 23.5742Z" fill="white"/>
<path d="M292 202.343H0V203H292V202.343Z" fill="#3F3D56"/>
<path d="M111.473 202.015H180.527V118.36C180.527 113.93 176.158 110.327 170.789 110.327H121.211C115.841 110.327 111.473 113.93 111.473 118.36V202.015Z" fill="#E6E6E6"/>
<path d="M116.734 198.555H175.266V127.648C175.266 123.894 171.563 120.839 167.012 120.839H124.988C120.437 120.839 116.734 123.894 116.734 127.648V198.555Z" fill="white"/>
<path d="M110.951 103.816C109.245 103.816 107.856 104.962 107.856 106.37V113.741C107.856 115.149 109.245 116.295 110.951 116.295H181.049C182.756 116.295 184.144 115.149 184.144 113.741V106.37C184.144 104.962 182.756 103.816 181.049 103.816H110.951Z" fill="#3F3D56"/>
<path d="M125.343 189.463C124.542 189.466 123.774 189.785 123.207 190.351C122.641 190.916 122.321 191.683 122.319 192.484V192.484C122.321 193.284 122.641 194.051 123.207 194.617C123.774 195.183 124.542 195.502 125.343 195.504H131.004V189.463H125.343Z" fill="#3F3D56"/>
<path d="M136.199 189.463H130.694V195.504H136.199C137 195.502 137.768 195.183 138.335 194.617C138.901 194.051 139.221 193.284 139.223 192.484V192.484C139.221 191.683 138.901 190.916 138.335 190.351C137.768 189.785 137 189.466 136.199 189.463V189.463Z" fill="#6C63FF"/>
<path opacity="0.2" d="M138.172 190.203C138.649 190.749 138.912 191.449 138.913 192.174V192.174C138.911 192.974 138.591 193.741 138.025 194.307C137.458 194.873 136.69 195.192 135.889 195.194H130.694V195.504H136.199C137 195.502 137.768 195.183 138.335 194.617C138.901 194.051 139.221 193.284 139.223 192.484C139.222 192.05 139.128 191.622 138.947 191.229C138.766 190.835 138.501 190.485 138.172 190.203V190.203Z" fill="black"/>
<path d="M150.887 143.968C150.335 143.387 149.576 143.048 148.775 143.025C147.974 143.001 147.197 143.295 146.612 143.842V143.842C146.03 144.393 145.691 145.151 145.667 145.951C145.644 146.751 145.938 147.528 146.486 148.112L150.369 152.226L154.77 148.082L150.887 143.968Z" fill="#3F3D56"/>
<path d="M158.333 151.858L154.557 147.857L150.156 152L153.932 156.001C154.483 156.582 155.243 156.921 156.044 156.945C156.845 156.969 157.622 156.675 158.207 156.127V156.127C158.789 155.577 159.128 154.819 159.152 154.019C159.176 153.219 158.881 152.442 158.333 151.858V151.858Z" fill="#6C63FF"/>
<path opacity="0.2" d="M159.148 153.799C159.077 154.521 158.748 155.192 158.22 155.69V155.69C157.635 156.237 156.857 156.531 156.056 156.507C155.256 156.483 154.496 156.144 153.945 155.563L150.381 151.788L150.156 152L153.932 156.001C154.483 156.582 155.243 156.921 156.044 156.945C156.845 156.969 157.622 156.675 158.207 156.127C158.522 155.83 158.769 155.468 158.932 155.066C159.094 154.664 159.168 154.232 159.148 153.799V153.799Z" fill="black"/>
<path d="M134.774 153.492C134.223 152.912 133.464 152.572 132.663 152.549C131.862 152.525 131.084 152.819 130.499 153.366V153.366C129.918 153.917 129.578 154.675 129.555 155.475C129.531 156.275 129.825 157.052 130.373 157.636L134.256 161.75L138.657 157.606L134.774 153.492Z" fill="#3F3D56"/>
<path d="M142.221 161.382L138.444 157.381L134.043 161.524L137.819 165.526C138.371 166.106 139.13 166.446 139.931 166.469C140.732 166.493 141.51 166.199 142.094 165.652V165.652C142.676 165.101 143.016 164.343 143.039 163.543C143.063 162.743 142.769 161.966 142.221 161.382V161.382Z" fill="#6C63FF"/>
<path opacity="0.2" d="M143.035 163.324C142.964 164.045 142.635 164.716 142.107 165.214V165.214C141.523 165.761 140.745 166.055 139.944 166.031C139.143 166.008 138.384 165.669 137.832 165.088L134.269 161.312L134.043 161.524L137.82 165.526C138.371 166.106 139.13 166.446 139.931 166.469C140.732 166.493 141.51 166.199 142.094 165.652V165.652C142.41 165.354 142.657 164.992 142.819 164.59C142.982 164.188 143.055 163.756 143.035 163.324Z" fill="black"/>
<path d="M150.887 162.36C150.335 161.779 149.576 161.44 148.775 161.416C147.974 161.393 147.197 161.686 146.612 162.234V162.234C146.03 162.784 145.691 163.543 145.667 164.343C145.644 165.143 145.938 165.919 146.486 166.503L150.369 170.617L154.77 166.474L150.887 162.36Z" fill="#3F3D56"/>
<path d="M158.333 170.25L154.557 166.248L150.156 170.392L153.932 174.393C154.483 174.974 155.243 175.313 156.044 175.337C156.845 175.36 157.622 175.066 158.207 174.519V174.519C158.789 173.968 159.128 173.21 159.152 172.41C159.176 171.61 158.881 170.834 158.333 170.25V170.25Z" fill="#6C63FF"/>
<path opacity="0.2" d="M159.148 172.191C159.077 172.912 158.748 173.584 158.22 174.081C157.635 174.629 156.857 174.922 156.056 174.899C155.256 174.875 154.496 174.536 153.945 173.955L150.381 170.179L150.156 170.392L153.932 174.393C154.483 174.974 155.243 175.313 156.044 175.337C156.845 175.36 157.622 175.066 158.207 174.519V174.519C158.522 174.221 158.769 173.859 158.932 173.458C159.094 173.056 159.168 172.624 159.148 172.191V172.191Z" fill="black"/>
<path d="M160.716 181.233C161.291 180.676 161.622 179.913 161.635 179.113C161.649 178.313 161.346 177.54 160.791 176.962V176.962C160.232 176.388 159.469 176.058 158.668 176.045C157.867 176.031 157.093 176.334 156.515 176.888L152.443 180.816L156.645 185.161L160.716 181.233Z" fill="#3F3D56"/>
<path d="M152.908 188.766L156.868 184.946L152.666 180.601L148.706 184.421C148.131 184.978 147.801 185.741 147.787 186.541C147.773 187.341 148.077 188.114 148.632 188.692V188.692C149.19 189.266 149.953 189.596 150.755 189.61C151.556 189.623 152.33 189.32 152.908 188.766V188.766Z" fill="#6C63FF"/>
<path opacity="0.2" d="M150.974 189.603C150.251 189.541 149.575 189.22 149.07 188.699V188.699C148.515 188.122 148.212 187.349 148.226 186.549C148.24 185.748 148.57 184.986 149.145 184.428L152.882 180.824L152.666 180.601L148.706 184.421C148.131 184.979 147.801 185.741 147.787 186.541C147.773 187.341 148.077 188.114 148.632 188.692V188.692C148.934 189.003 149.299 189.245 149.703 189.403C150.108 189.56 150.541 189.628 150.974 189.603Z" fill="black"/>
<path d="M139.014 171.709C139.588 171.151 139.919 170.389 139.933 169.589C139.947 168.789 139.643 168.015 139.088 167.438C138.53 166.864 137.766 166.534 136.965 166.52C136.164 166.506 135.39 166.81 134.812 167.364L130.74 171.292L134.942 175.637L139.014 171.709Z" fill="#3F3D56"/>
<path d="M131.205 179.242L135.165 175.421L130.963 171.077L127.003 174.897C126.429 175.454 126.098 176.216 126.084 177.017C126.07 177.817 126.374 178.59 126.929 179.167V179.167C127.488 179.741 128.251 180.071 129.052 180.085C129.853 180.099 130.627 179.796 131.205 179.242V179.242Z" fill="#6C63FF"/>
<path opacity="0.2" d="M129.271 180.079C128.548 180.017 127.872 179.696 127.368 179.175C126.813 178.598 126.509 177.825 126.523 177.024C126.537 176.224 126.867 175.462 127.442 174.904L131.179 171.299L130.963 171.077L127.003 174.897C126.429 175.454 126.098 176.216 126.084 177.017C126.07 177.817 126.374 178.59 126.929 179.167V179.167C127.231 179.479 127.597 179.721 128.001 179.878C128.405 180.036 128.838 180.104 129.271 180.079V180.079Z" fill="black"/>
<path d="M169.924 160.214C170.498 159.657 170.829 158.894 170.843 158.094C170.857 157.294 170.553 156.521 169.998 155.943V155.943C169.439 155.369 168.676 155.039 167.875 155.025C167.074 155.012 166.3 155.315 165.722 155.869L161.65 159.797L165.852 164.142L169.924 160.214Z" fill="#3F3D56"/>
<path d="M162.115 167.747L166.075 163.927L161.873 159.582L157.913 163.402C157.339 163.959 157.008 164.722 156.994 165.522C156.98 166.322 157.284 167.095 157.839 167.673V167.673C158.398 168.247 159.161 168.577 159.962 168.591C160.763 168.604 161.537 168.301 162.115 167.747Z" fill="#6C63FF"/>
<path opacity="0.2" d="M160.181 168.584C159.458 168.522 158.782 168.201 158.278 167.68V167.68C157.723 167.103 157.419 166.33 157.433 165.529C157.447 164.729 157.777 163.967 158.352 163.409L162.089 159.805L161.873 159.582L157.913 163.402C157.339 163.959 157.008 164.722 156.994 165.522C156.98 166.322 157.284 167.095 157.839 167.673V167.673C158.141 167.984 158.506 168.226 158.911 168.383C159.315 168.541 159.748 168.609 160.181 168.584Z" fill="black"/>
<path d="M163.053 184.036C162.502 183.455 161.743 183.116 160.942 183.092C160.141 183.068 159.363 183.362 158.779 183.91V183.91C158.197 184.46 157.857 185.218 157.834 186.018C157.81 186.818 158.104 187.595 158.652 188.179L162.535 192.293L166.936 188.15L163.053 184.036Z" fill="#3F3D56"/>
<path d="M170.5 191.925L166.724 187.924L162.322 192.068L166.099 196.069C166.65 196.65 167.409 196.989 168.21 197.013C169.011 197.036 169.789 196.742 170.374 196.195V196.195C170.955 195.644 171.295 194.886 171.319 194.086C171.342 193.286 171.048 192.509 170.5 191.925Z" fill="#6C63FF"/>
<path opacity="0.2" d="M171.315 193.867C171.244 194.588 170.914 195.26 170.387 195.757V195.757C169.802 196.304 169.024 196.598 168.223 196.575C167.422 196.551 166.663 196.212 166.112 195.631L162.548 191.855L162.322 192.068L166.099 196.069C166.65 196.65 167.409 196.989 168.21 197.013C169.011 197.036 169.789 196.742 170.374 196.195V196.195C170.689 195.897 170.936 195.535 171.098 195.134C171.261 194.732 171.334 194.3 171.315 193.867V193.867Z" fill="black"/>
<path d="M141.68 183.707C141.128 183.127 140.369 182.787 139.568 182.764C138.767 182.74 137.989 183.034 137.405 183.581V183.581C136.823 184.132 136.484 184.89 136.46 185.69C136.436 186.49 136.731 187.267 137.279 187.851L141.161 191.965L145.562 187.821L141.68 183.707Z" fill="#3F3D56"/>
<path d="M149.126 191.597L145.35 187.596L140.949 191.739L144.725 195.741C145.276 196.321 146.035 196.661 146.836 196.684C147.637 196.708 148.415 196.414 149 195.867V195.867C149.581 195.316 149.921 194.558 149.945 193.758C149.968 192.958 149.674 192.181 149.126 191.597V191.597Z" fill="#6C63FF"/>
<path opacity="0.2" d="M149.941 193.539C149.87 194.26 149.54 194.931 149.013 195.429V195.429C148.428 195.976 147.65 196.27 146.849 196.246C146.048 196.223 145.289 195.883 144.738 195.303L141.174 191.527L140.949 191.739L144.725 195.741C145.276 196.321 146.035 196.661 146.836 196.684C147.637 196.708 148.415 196.414 149 195.867V195.867C149.315 195.569 149.562 195.207 149.725 194.805C149.887 194.403 149.961 193.971 149.941 193.539Z" fill="black"/>
<path d="M147.696 172.872C147.696 173.876 147.349 174.849 146.713 175.627C146.077 176.405 145.192 176.94 144.207 177.14C143.631 177.257 143.038 177.257 142.462 177.14C141.477 176.939 140.592 176.405 139.956 175.627C139.321 174.849 138.973 173.876 138.973 172.872C138.973 171.867 139.321 170.894 139.956 170.116C140.592 169.338 141.477 168.804 142.462 168.603C143.038 168.487 143.631 168.487 144.207 168.603C145.192 168.804 146.077 169.338 146.713 170.116C147.349 170.894 147.696 171.867 147.696 172.872V172.872Z" fill="#6C63FF"/>
<path opacity="0.2" d="M144.207 168.603V177.14C143.631 177.257 143.038 177.257 142.462 177.14V168.603C143.038 168.487 143.631 168.487 144.207 168.603Z" fill="black"/>
<path d="M149.669 155.465C149.669 156.469 149.322 157.443 148.686 158.221C148.05 158.998 147.165 159.533 146.18 159.734C145.604 159.85 145.011 159.85 144.435 159.734C143.45 159.533 142.565 158.998 141.929 158.22C141.294 157.443 140.946 156.469 140.946 155.465C140.946 154.461 141.294 153.488 141.929 152.71C142.565 151.932 143.45 151.397 144.435 151.196C145.011 151.08 145.604 151.08 146.18 151.196C147.165 151.397 148.05 151.932 148.686 152.71C149.322 153.488 149.669 154.461 149.669 155.465V155.465Z" fill="#6C63FF"/>
<path opacity="0.2" d="M146.18 151.196V159.734C145.604 159.85 145.011 159.85 144.435 159.734V151.196C145.011 151.08 145.604 151.08 146.18 151.196Z" fill="black"/>
<path d="M149.669 180.425C149.669 181.429 149.322 182.403 148.686 183.181C148.05 183.959 147.165 184.493 146.18 184.694C145.604 184.81 145.011 184.81 144.435 184.694C143.45 184.493 142.565 183.958 141.929 183.181C141.294 182.403 140.946 181.429 140.946 180.425C140.946 179.421 141.294 178.448 141.929 177.67C142.565 176.892 143.45 176.357 144.435 176.156C145.011 176.04 145.604 176.04 146.18 176.156C147.165 176.357 148.05 176.892 148.686 177.67C149.322 178.448 149.669 179.421 149.669 180.425V180.425Z" fill="#6C63FF"/>
<path opacity="0.2" d="M146.18 176.156V184.694C145.604 184.81 145.011 184.81 144.435 184.694V176.156C145.011 176.04 145.604 176.04 146.18 176.156Z" fill="black"/>
<path d="M160.52 192.577C160.521 193.581 160.173 194.555 159.538 195.332C158.902 196.11 158.016 196.645 157.031 196.846C156.456 196.962 155.863 196.962 155.287 196.846C154.302 196.645 153.417 196.11 152.781 195.332C152.145 194.554 151.798 193.581 151.798 192.577C151.798 191.573 152.145 190.599 152.781 189.822C153.417 189.044 154.302 188.509 155.287 188.308C155.863 188.192 156.456 188.192 157.031 188.308C158.016 188.509 158.902 189.044 159.538 189.821C160.173 190.599 160.521 191.573 160.52 192.577V192.577Z" fill="#6C63FF"/>
<path opacity="0.2" d="M157.031 188.308V196.846C156.456 196.962 155.863 196.962 155.287 196.846V188.308C155.863 188.192 156.456 188.192 157.031 188.308Z" fill="black"/>
<path d="M170.106 170.219C170.83 170.916 171.291 171.841 171.411 172.838C171.53 173.835 171.301 174.843 170.762 175.691C170.447 176.185 170.035 176.612 169.552 176.945C168.723 177.514 167.723 177.78 166.721 177.697C165.72 177.614 164.777 177.189 164.053 176.492C163.329 175.795 162.869 174.87 162.749 173.873C162.629 172.876 162.858 171.868 163.397 171.02C163.713 170.526 164.124 170.099 164.608 169.766C165.436 169.197 166.436 168.931 167.438 169.014C168.44 169.096 169.383 169.522 170.106 170.219V170.219Z" fill="#6C63FF"/>
<path opacity="0.2" d="M164.608 169.766L170.762 175.691C170.447 176.185 170.035 176.612 169.552 176.945L163.397 171.02C163.713 170.526 164.124 170.099 164.608 169.766V169.766Z" fill="black"/>
<path d="M171.422 179.744C172.146 180.44 172.606 181.365 172.726 182.363C172.846 183.36 172.617 184.367 172.078 185.215C171.762 185.71 171.35 186.136 170.867 186.47C170.039 187.038 169.039 187.304 168.037 187.221C167.035 187.139 166.092 186.713 165.368 186.016C164.644 185.319 164.184 184.394 164.064 183.397C163.945 182.4 164.174 181.392 164.712 180.545C165.028 180.05 165.44 179.624 165.923 179.29C166.751 178.721 167.751 178.455 168.753 178.538C169.755 178.621 170.698 179.047 171.422 179.744V179.744Z" fill="#6C63FF"/>
<path opacity="0.2" d="M165.923 179.29L172.078 185.215C171.762 185.71 171.35 186.136 170.867 186.469L164.712 180.545C165.028 180.05 165.44 179.623 165.923 179.29V179.29Z" fill="black"/>
<path d="M132.291 182.043C133.015 182.739 133.476 183.664 133.595 184.661C133.715 185.658 133.486 186.666 132.947 187.514C132.631 188.009 132.22 188.435 131.736 188.768C130.908 189.337 129.908 189.603 128.906 189.52C127.904 189.438 126.962 189.012 126.238 188.315C125.514 187.618 125.053 186.693 124.934 185.696C124.814 184.699 125.043 183.691 125.582 182.844C125.897 182.349 126.309 181.922 126.792 181.589C127.621 181.02 128.621 180.754 129.623 180.837C130.625 180.92 131.567 181.345 132.291 182.043V182.043Z" fill="#6C63FF"/>
<path opacity="0.2" d="M126.792 181.589L132.947 187.514C132.631 188.009 132.22 188.435 131.736 188.768L125.582 182.844C125.897 182.349 126.309 181.922 126.792 181.589V181.589Z" fill="black"/>
<path opacity="0.2" d="M118.214 103.816H116.57V115.968H118.214V103.816Z" fill="black"/>
<path opacity="0.2" d="M127.75 103.816H126.106V115.968H127.75V103.816Z" fill="black"/>
<path opacity="0.2" d="M137.286 103.816H135.642V115.968H137.286V103.816Z" fill="black"/>
<path opacity="0.2" d="M146.822 103.816H145.178V115.968H146.822V103.816Z" fill="black"/>
<path opacity="0.2" d="M156.358 103.816H154.714V115.968H156.358V103.816Z" fill="black"/>
<path opacity="0.2" d="M165.894 103.816H164.25V115.968H165.894V103.816Z" fill="black"/>
<path opacity="0.2" d="M175.43 103.816H173.786V115.968H175.43V103.816Z" fill="black"/>
</svg>
