<svg width="196" height="196" viewBox="0 0 196 196" fill="none" xmlns="http://www.w3.org/2000/svg">
<g clip-path="url(#clip0_3_231)">
<path d="M194.122 175.392C191.697 180.442 187.227 184.199 182.541 187.254C177.419 190.589 171.901 193.268 166.115 195.228C165.322 195.502 164.521 195.757 163.716 196H131.177C130.95 195.753 130.734 195.494 130.53 195.228C128.351 192.428 127.173 188.841 127.6 185.327C128.151 180.813 131.57 176.666 135.998 175.708C140.43 174.747 145.481 177.399 146.829 181.744C147.568 173.372 148.423 164.653 152.858 157.525C156.878 151.072 163.836 146.454 171.375 145.628C175.809 145.164 180.283 145.986 184.266 147.995C184.631 148.18 184.993 148.373 185.348 148.574C187.738 149.933 189.847 151.738 191.562 153.891C196.263 159.861 197.415 168.537 194.122 175.392Z" fill="#F2F2F2"/>
<path d="M185.109 149.103C169.977 161.462 158.02 177.279 150.24 195.228C150.129 195.483 150.017 195.741 149.909 196H148.377C148.485 195.741 148.592 195.483 148.704 195.228C150.186 191.752 151.823 188.339 153.621 185.014C157.447 177.944 161.949 171.263 167.062 165.066C172.173 158.861 177.881 153.176 184.104 148.095C184.153 148.055 184.208 148.021 184.266 147.995C184.374 147.947 184.491 147.925 184.609 147.93C184.727 147.935 184.842 147.966 184.946 148.022C185.05 148.078 185.14 148.156 185.21 148.252C185.279 148.347 185.326 148.457 185.348 148.574C185.359 148.675 185.342 148.778 185.3 148.871C185.258 148.964 185.192 149.044 185.109 149.103Z" fill="white"/>
<path d="M64.3831 113.367C64.7632 112.99 65.0563 112.534 65.2417 112.031C65.4271 111.528 65.5002 110.99 65.4561 110.456C65.4119 109.922 65.2515 109.404 64.986 108.938C64.7206 108.473 64.3567 108.072 63.9198 107.763L62.0731 95.5529L54.4875 97.9473L58.6432 108.84C58.1741 109.611 58.0031 110.527 58.1625 111.415C58.322 112.304 58.8009 113.102 59.5084 113.66C60.2159 114.218 61.103 114.497 62.0014 114.443C62.8999 114.388 63.7473 114.006 64.3832 113.367H64.3831Z" fill="#FFB8B8"/>
<path d="M56.5686 107.623L51.8893 85.7064C51.4335 83.6071 51.5227 81.4255 52.1484 79.3706C52.7741 77.3157 53.9154 75.4563 55.463 73.9705C61.4526 68.182 69.1506 60.886 71.8096 58.9987C74.3053 57.2147 77.3251 56.3207 80.3868 56.4597L80.451 56.4667L84.4761 60.2816L75.7078 74.7577L62.3965 83.122L63.8778 104.603L56.5686 107.623Z" fill="#6C63FF"/>
<path d="M72.9562 77.84H53.3195C52.4689 77.84 51.7794 78.5315 51.7794 79.3846C51.7794 80.2376 52.4689 80.9292 53.3195 80.9292H72.9562C73.8068 80.9292 74.4963 80.2376 74.4963 79.3846C74.4963 78.5315 73.8068 77.84 72.9562 77.84Z" fill="#CCCCCC"/>
<path d="M72.9562 111.435H53.3195C52.4689 111.435 51.7794 112.126 51.7794 112.979C51.7794 113.832 52.4689 114.524 53.3195 114.524H72.9562C73.8068 114.524 74.4963 113.832 74.4963 112.979C74.4963 112.126 73.8068 111.435 72.9562 111.435Z" fill="#CCCCCC"/>
<path d="M63.3303 195.614C63.1379 195.614 62.9524 195.542 62.8104 195.411C62.6685 195.281 62.5803 195.102 62.5633 194.91L52.7464 79.4528C52.7284 79.2488 52.7919 79.046 52.923 78.8889C53.0541 78.7318 53.242 78.6334 53.4454 78.6153C53.6489 78.5972 53.8511 78.6609 54.0078 78.7924C54.1644 78.9238 54.2625 79.1123 54.2806 79.3163L63.3193 185.989L72.1011 79.3182C72.1098 79.2172 72.1382 79.1188 72.1848 79.0288C72.2314 78.9388 72.2952 78.8589 72.3726 78.7936C72.45 78.7283 72.5394 78.6789 72.6358 78.6483C72.7322 78.6177 72.8337 78.6064 72.9345 78.6151C73.0353 78.6238 73.1333 78.6524 73.2231 78.6991C73.3128 78.7458 73.3925 78.8098 73.4576 78.8874C73.5227 78.965 73.572 79.0548 73.6025 79.1514C73.633 79.2481 73.6443 79.3499 73.6356 79.451L64.0976 194.908C64.081 195.1 63.9932 195.28 63.8513 195.41C63.7094 195.541 63.5239 195.614 63.3313 195.614H63.3303Z" fill="#CCCCCC"/>
<path d="M85.3676 51.8381C90.9472 51.8381 95.4704 47.3019 95.4704 41.7062C95.4704 36.1105 90.9472 31.5742 85.3676 31.5742C79.788 31.5742 75.2648 36.1105 75.2648 41.7062C75.2648 47.3019 79.788 51.8381 85.3676 51.8381Z" fill="#FFB8B8"/>
<path d="M55.2585 190.983L50.4541 189.448L54.0742 170.131L61.1657 172.397L55.2585 190.983Z" fill="#FFB8B8"/>
<path d="M54.9911 195.257L39.5239 190.313L39.6516 189.91C40.1436 188.369 41.2251 187.086 42.6589 186.343C44.0926 185.6 45.7616 185.458 47.2998 185.948L56.9676 189.038L54.9911 195.257Z" fill="#2F2E41"/>
<path d="M90.2153 190.883H85.1726L82.7726 171.376H90.2153V190.883Z" fill="#FFB8B8"/>
<path d="M75.6396 195.386H91.1036V189.631H81.3416C79.8298 189.633 78.3805 190.236 77.3116 191.308C76.2426 192.38 75.6413 193.834 75.6396 195.35V195.386Z" fill="#2F2E41"/>
<path d="M90.0678 184.553L88.3658 184.298C83.2037 183.527 82.8946 183.481 82.0751 183.12C81.6566 182.935 81.6272 180.149 81.8785 164.486C82.0628 152.989 82.2924 138.68 81.8467 130.999C81.8283 130.696 81.7087 130.407 81.5071 130.181C81.3055 129.954 81.0337 129.803 80.7355 129.75C80.4373 129.697 80.1301 129.747 79.8635 129.891C79.5968 130.034 79.3863 130.264 79.2658 130.543C75.4248 139.438 68.9807 159.345 64.7164 172.518C63.2332 177.1 62.0616 180.72 61.3204 182.889C61.1773 183.299 60.8867 183.641 60.5055 183.848C60.1244 184.055 59.6799 184.112 59.2591 184.008C55.7499 183.128 55.9845 182.754 50.9864 181.458C50.554 181.347 50.181 181.073 49.9455 180.693C49.71 180.313 49.6302 179.856 49.7229 179.418C50.6269 175.143 67.1705 105.819 68.4368 99.2295C68.4796 99.0039 68.5666 98.7891 68.6927 98.5974C68.8188 98.4058 68.9815 98.2411 69.1714 98.1128C69.3613 97.9846 69.5747 97.8954 69.7992 97.8503C70.0237 97.8052 70.2549 97.8052 70.4794 97.8502C74.2042 98.6029 76.4702 99.4014 80.1511 100.174C84.1229 101.007 88.2299 101.868 92.2359 102.673C92.6346 102.753 92.992 102.973 93.2444 103.292C94.2356 104.548 95.7055 105.253 97.2617 105.999C98.3108 106.502 95.9334 106.457 96.8471 107.182C100.547 110.12 95.2263 169.771 92.0113 183.244C91.9081 183.665 91.6517 184.033 91.2923 184.276C90.9328 184.518 90.4962 184.617 90.0678 184.553V184.553Z" fill="#2F2E41"/>
<path d="M89.6737 50.5719C89.0839 48.062 92.0656 42.6612 91.4758 40.1512C91.0763 38.4514 87.0908 39.6069 86.1607 38.1305C85.2306 36.6542 83.6727 35.4581 81.9314 35.4385C79.93 35.4159 77.9607 36.9048 76.0648 36.2613C74.1478 35.6107 73.5351 32.978 74.3826 31.1349C75.2301 29.2919 77.0558 28.1174 78.8596 27.1971C81.9312 25.63 85.5077 24.4856 88.7952 25.5224C90.7825 26.1492 92.4441 27.5073 94.0522 28.8356C95.5179 30.0465 97.0084 31.2848 98.0331 32.8882C100.04 36.0294 99.9193 40.2618 98.2039 43.5725C96.4884 46.8831 93.3627 49.3125 89.9185 50.7228" fill="#2F2E41"/>
<path d="M64.8667 108.983C65.9571 107.156 67.6126 98.5963 69.6541 84.2294C71.044 74.4218 72.2551 64.4565 72.8559 59.3661C72.9026 58.9541 73.0528 58.5608 73.2925 58.223C73.5323 57.8852 73.8536 57.614 74.2265 57.4348C74.6164 57.2461 75.004 57.0675 75.3893 56.899C80.3651 54.7284 85.4078 54.0093 90.3764 54.7612C95.3376 55.5254 99.9911 57.6519 103.821 60.9052L103.867 60.948L103.878 61.0091C103.9 61.1223 105.987 72.3996 101.712 80.0188C97.497 87.5365 97.4478 107.445 97.4478 107.645V107.901L97.2024 107.831C90.6445 105.952 65.3119 109.24 65.0567 109.273L64.6623 109.325L64.8667 108.983Z" fill="#6C63FF"/>
<path d="M102.989 82.8599H83.3521C82.5015 82.8599 81.812 83.5514 81.812 84.4045C81.812 85.2575 82.5015 85.949 83.3521 85.949H102.989C103.839 85.949 104.529 85.2575 104.529 84.4045C104.529 83.5514 103.839 82.8599 102.989 82.8599Z" fill="#CCCCCC"/>
<path d="M102.989 116.454H83.3521C82.5015 116.454 81.812 117.146 81.812 117.999C81.812 118.852 82.5015 119.544 83.3521 119.544H102.989C103.839 119.544 104.529 118.852 104.529 117.999C104.529 117.146 103.839 116.454 102.989 116.454Z" fill="#CCCCCC"/>
<path d="M93.363 196C93.1705 196 92.9851 195.928 92.8431 195.797C92.7011 195.667 92.613 195.488 92.5959 195.296L82.7791 84.4727C82.7701 84.3717 82.7811 84.2699 82.8114 84.1731C82.8417 84.0764 82.8907 83.9865 82.9556 83.9088C83.0205 83.831 83.1001 83.7668 83.1897 83.7199C83.2793 83.6729 83.3773 83.6441 83.4781 83.6352C83.5788 83.6262 83.6803 83.6372 83.7768 83.6676C83.8733 83.698 83.9629 83.7471 84.0404 83.8122C84.1179 83.8773 84.182 83.9571 84.2288 84.047C84.2756 84.1369 84.3043 84.2352 84.3132 84.3362L93.3519 186.375L102.134 84.3381C102.151 84.134 102.249 83.9453 102.405 83.8134C102.562 83.6816 102.764 83.6174 102.967 83.635C103.171 83.6526 103.359 83.7505 103.49 83.9073C103.622 84.064 103.686 84.2667 103.668 84.4708L94.1303 195.294C94.1137 195.487 94.0258 195.666 93.8839 195.796C93.7421 195.927 93.5566 196 93.364 196H93.363Z" fill="#CCCCCC"/>
<path d="M87.0226 116.944C86.9078 116.42 86.9088 115.877 87.0257 115.354C87.1425 114.831 87.3723 114.34 87.6989 113.916C88.0255 113.491 88.4409 113.144 88.9159 112.898C89.3908 112.651 89.9138 112.513 90.448 112.491L98.6136 103.248L103.684 109.392L94.2938 116.272C94.2702 117.174 93.9174 118.036 93.3022 118.695C92.6869 119.354 91.8521 119.764 90.9559 119.847C90.0596 119.929 89.1641 119.68 88.4392 119.145C87.7143 118.61 87.2103 117.826 87.0226 116.944V116.944Z" fill="#FFB8B8"/>
<path d="M91.7769 110.51L104.659 93.2844L98.0162 79.0087L98.4985 62.078L103.945 61.0689L104.002 61.0979C106.648 62.6497 108.699 65.0458 109.827 67.9035C111.037 70.9369 113.546 81.2568 115.438 89.3801C115.932 91.4708 115.883 93.6536 115.295 95.7197C114.707 97.7857 113.6 99.6658 112.079 101.18L96.2766 117.028L91.7769 110.51Z" fill="#6C63FF"/>
<path d="M37.7759 191.21L55.4 195.466C55.7419 195.556 56.1047 195.524 56.4252 195.374C56.7457 195.224 57.0035 194.966 57.1537 194.645L72.2932 154.276C72.36 154.121 72.3946 153.954 72.3948 153.785C72.395 153.616 72.3609 153.449 72.2945 153.293C72.2181 153.119 72.1073 152.962 71.9687 152.832C71.83 152.701 71.6665 152.601 71.4879 152.536L58.2372 147.461C58.0277 147.381 57.8038 147.346 57.5799 147.358C57.356 147.37 57.1372 147.43 56.9379 147.533C56.7647 147.619 56.6118 147.741 56.4896 147.891C56.3673 148.041 56.2786 148.215 56.2293 148.403L56.2289 148.405L46.8764 183.983L46.7375 183.992C46.6837 183.995 41.3222 184.361 38.9112 187.264C38.4613 187.808 38.1281 188.439 37.9328 189.118C37.7374 189.797 37.684 190.509 37.7759 191.21Z" fill="#CCCCCC"/>
<path d="M190.977 195.614C190.977 195.665 190.967 195.715 190.948 195.762C190.929 195.809 190.9 195.851 190.864 195.887C190.829 195.923 190.786 195.952 190.739 195.971C190.693 195.99 190.642 196 190.592 196H0.385034C0.282916 196 0.184987 195.959 0.112779 195.887C0.0405715 195.814 0 195.716 0 195.614C0 195.511 0.0405715 195.413 0.112779 195.341C0.184987 195.268 0.282916 195.228 0.385034 195.228H190.592C190.642 195.228 190.693 195.237 190.739 195.257C190.786 195.276 190.829 195.305 190.864 195.34C190.9 195.376 190.929 195.419 190.948 195.466C190.967 195.513 190.977 195.563 190.977 195.614Z" fill="#3F3D56"/>
<path d="M50.5397 168.58L50.4586 169.349L66.5267 171.055L66.6078 170.287L50.5397 168.58Z" fill="#B3B3B3"/>
<path d="M49.1388 174.943L48.8228 175.647L61.7533 181.482L62.0693 180.777L49.1388 174.943Z" fill="#B3B3B3"/>
<path d="M68.2988 164.878L53.058 159.815L53.3742 159.111L68.615 164.173L68.2988 164.878Z" fill="#B3B3B3"/>
<path d="M69.839 161.402L54.5982 154.023L54.9143 153.319L70.1551 160.698L69.839 161.402Z" fill="#B3B3B3"/>
<path d="M47.7947 180.99L47.2946 181.577L58.2832 190.991L58.7833 190.404L47.7947 180.99Z" fill="#B3B3B3"/>
<path d="M44.6748 184.111L43.9735 184.43L48.3857 194.187L49.087 193.868L44.6748 184.111Z" fill="#B3B3B3"/>
<path d="M147.984 184.572V8.56589C147.984 6.18917 148.029 3.80738 147.984 1.43096C147.982 1.32706 147.984 1.22295 147.984 1.11902C147.984 -0.371773 145.674 -0.37424 145.674 1.11902V177.125C145.674 179.502 145.629 181.883 145.674 184.26C145.676 184.364 145.674 184.468 145.674 184.572C145.674 186.063 147.984 186.065 147.984 184.572V184.572Z" fill="#F2F2F2"/>
<path d="M160.761 50.3112H133.038C132.375 50.3105 131.738 50.0458 131.269 49.5753C130.8 49.1047 130.536 48.4668 130.535 47.8013V14.0137C130.536 13.3483 130.8 12.7103 131.269 12.2398C131.738 11.7693 132.375 11.5046 133.038 11.5038H160.761C161.424 11.5046 162.06 11.7693 162.529 12.2398C162.999 12.7103 163.262 13.3483 163.263 14.0137V47.8013C163.262 48.4668 162.999 49.1047 162.529 49.5753C162.06 50.0458 161.424 50.3105 160.761 50.3112Z" fill="#F2F2F2"/>
</g>
<defs>
<clipPath id="clip0_3_231">
<rect width="196" height="196" fill="white"/>
</clipPath>
</defs>
</svg>
